<svg width="47" height="27" viewBox="0 0 47 27" fill="none" xmlns="http://www.w3.org/2000/svg">
<path fill-rule="evenodd" clip-rule="evenodd" d="M16.5584 0.0848026C16.2423 0.319272 15.6715 1.00733 15.1405 1.79408C14.0918 3.34792 13.3195 5.30798 13.1036 6.96362C13.0481 7.38965 13.0428 8.40778 13.0941 8.81319C13.1872 9.54943 13.3193 10.0464 13.5875 10.6693C13.7359 11.0141 14.1553 11.84 14.3408 12.1526C14.9244 13.1363 15.6635 13.9636 16.7789 14.8813C16.9758 15.0433 17.203 15.2225 17.2838 15.2794C17.4577 15.4019 17.6683 15.522 17.6831 15.5071C17.6949 15.4952 17.6738 15.4115 17.6456 15.3586C17.6354 15.3394 17.4686 15.1239 17.2749 14.8798C17.0813 14.6356 16.8353 14.3027 16.7284 14.1399C16.501 13.794 16.2794 13.4742 15.7991 12.799C15.411 12.2535 15.2363 11.9906 15.0815 11.7189C14.2415 10.2446 14.021 8.67441 14.4292 7.07459C14.5797 6.48499 14.82 5.85342 15.126 5.24352C15.445 4.60788 15.7788 4.08205 16.1984 3.55455C16.4631 3.22187 17.0549 2.5697 17.191 2.4607C17.2962 2.37649 17.3441 2.38476 17.5972 2.53086C17.7177 2.6004 18.0421 2.78793 18.3181 2.94762C18.5941 3.10729 18.8957 3.2763 18.9882 3.32317C19.1931 3.42695 19.4425 3.53567 19.4593 3.5286C19.4761 3.52161 19.275 3.16084 19.0633 2.81798C18.739 2.29278 18.3324 1.73325 17.9343 1.26401C17.4685 0.715098 16.7731 0 16.7051 0C16.6873 0 16.6213 0.0381566 16.5584 0.0848026ZM30.3358 0.144914C30.2619 0.198828 29.9475 0.531011 29.7378 0.776818C29.2411 1.35886 28.3997 2.5187 28.1477 2.96855C28.0642 3.1175 27.9508 3.37294 27.9142 3.4942L27.9007 3.53898L27.9626 3.50153C27.9966 3.48094 28.136 3.3931 28.2723 3.30634C28.7401 3.00862 29.4363 2.61109 29.8402 2.41104C30.1676 2.24894 30.1962 2.25875 30.549 2.65331C31.0714 3.23769 31.6486 4.13924 32.16 5.16954C32.5672 5.99003 32.7452 6.50868 32.8487 7.17632C32.8998 7.50589 32.9035 8.10501 32.8568 8.47102C32.6302 10.2471 32.0279 11.6856 30.7968 13.3912C30.6978 13.5283 30.3149 14.0401 29.9459 14.5283C29.5769 15.0166 29.2551 15.4431 29.2306 15.476C29.192 15.5282 29.1901 15.5374 29.2159 15.5474C29.2719 15.5691 29.334 15.536 29.6977 15.2913C30.635 14.6605 31.3731 14.008 32.0211 13.2372C33.0301 12.037 33.7795 10.568 34.0719 9.21711C34.1909 8.66731 34.2117 8.45076 34.2111 7.76818C34.2106 7.23878 34.2044 7.09877 34.1688 6.80641C33.9541 5.04604 33.5469 3.84003 32.6123 2.19627C32.2498 1.55883 32.0807 1.338 31.692 0.994568C31.4834 0.810221 30.6545 0.157953 30.573 0.114044C30.5038 0.0767015 30.4131 0.0885018 30.3358 0.144914ZM23.5871 1.57481C23.5301 1.61911 23.2948 1.80048 23.0642 1.97783C20.954 3.60085 19.9379 4.49215 19.2464 5.32675C18.8156 5.84683 18.3942 6.4457 17.9254 7.20406C17.0074 8.68915 16.826 9.81795 17.1481 12.0407C17.2595 12.8097 17.3447 13.0348 17.9884 14.2602C18.2853 14.8253 18.5019 15.1912 18.7577 15.5595C19.668 16.87 19.8047 17.0586 20.1141 17.432C20.3719 17.7432 20.7652 18.15 21.066 18.4165C21.2898 18.6149 21.8441 19.0505 21.8728 19.0505C21.8799 19.0505 21.7875 18.9403 21.6674 18.8055C20.284 17.253 19.4003 15.6843 19.0105 14.0892C18.855 13.4528 18.7857 12.9309 18.7679 12.2626C18.7179 10.389 19.3527 8.71301 20.718 7.11366C20.9831 6.80308 21.5125 6.25871 21.883 5.91571C22.2595 5.5671 23.5975 4.37332 23.6519 4.3374C23.7234 4.29026 23.8191 4.29743 23.9034 4.35629C24.0132 4.43295 25.1235 5.55035 25.465 5.92788C26.4892 7.06019 27.0825 7.89382 27.5908 8.91493C27.9534 9.64316 28.1364 10.2048 28.2298 10.8755C28.2692 11.1587 28.2744 12.1395 28.2387 12.5586C28.1478 13.6237 27.953 14.4619 27.6024 15.2959C27.4862 15.5722 26.7975 16.9455 26.6068 17.281C26.4209 17.6081 26.2491 17.8616 26.0454 18.1095C25.8644 18.3297 25.7203 18.5273 25.7203 18.5552C25.7203 18.5771 26.1068 18.2482 26.3308 18.0357C26.9918 17.4088 27.8521 16.3072 28.5694 15.1694C29.0114 14.4683 29.53 13.5259 29.7415 13.0394C30.0075 12.4277 30.1915 11.7355 30.2651 11.0697C30.3052 10.7061 30.3049 10.0382 30.2644 9.67323C30.1307 8.47072 29.7215 7.41895 28.899 6.16427C28.077 4.91034 27.5367 4.34717 25.6589 2.7873C24.9996 2.23957 23.9441 1.52306 23.7669 1.50294C23.6987 1.49521 23.6796 1.50287 23.5871 1.57481ZM6.88747 3.92062C6.76039 3.95101 6.72697 4.01942 6.69025 4.32423C6.61481 4.95031 6.60084 5.64773 6.6529 6.1868C6.75534 7.24732 7.06509 8.30269 7.57576 9.33107C8.51519 11.2229 10.0363 12.5792 12.2807 13.5261C13.1575 13.8961 14.1918 14.2542 14.5368 14.3073C14.6167 14.3196 14.6171 14.3194 14.5893 14.2795C14.5739 14.2573 14.3477 14.1081 14.0865 13.9479C11.7436 12.5105 10.6893 11.6778 9.81169 10.5714C8.73072 9.20857 8.14758 7.66601 8.0417 5.88921C8.01721 5.47829 8.03125 5.43773 8.19791 5.43773C8.33594 5.43773 8.91206 5.54972 9.39811 5.67103C10.0841 5.84223 10.5219 6.00024 11.7666 6.52581C11.8625 6.56631 11.9441 6.59644 11.9478 6.59276C11.9693 6.57177 11.5536 6.12144 11.3214 5.91416C10.4455 5.13229 8.87707 4.32092 7.6998 4.04068C7.51578 3.99686 6.98884 3.89994 6.95935 3.90447C6.95258 3.90553 6.92023 3.91278 6.88747 3.92062ZM40.5461 3.96699C40.0931 4.08801 38.9441 4.57063 37.6635 5.17783C36.6124 5.67623 36.2988 5.86407 35.9524 6.20276C35.7663 6.38469 35.7888 6.40368 36.062 6.29526C36.3607 6.17668 36.9199 5.99347 37.2417 5.90874C37.7985 5.76212 38.2824 5.6965 38.8019 5.69717C39.1392 5.69761 39.2261 5.71252 39.2838 5.77995C39.3228 5.82541 39.3251 5.84437 39.3251 6.10923C39.3248 7.24168 38.9908 8.50928 38.4275 9.51602C37.715 10.7894 36.7856 11.6885 34.9525 12.8781C33.7275 13.673 33.6811 13.7008 33.0551 14.0133C32.5631 14.2591 32.3268 14.3917 32.3608 14.4031C32.4024 14.417 33.4502 14.0468 34.0687 13.7995C35.486 13.233 36.814 12.4928 37.8216 11.7077C38.1571 11.4463 38.4281 11.2069 38.7628 10.8763C39.4482 10.1993 39.9004 9.59008 40.2803 8.83168C40.6568 8.08026 40.8581 7.4074 40.9694 6.52897C41.0328 6.02828 41.0235 5.14169 40.9487 4.55339C40.8985 4.1582 40.8662 4.01075 40.8198 3.96394C40.7677 3.9115 40.7531 3.91167 40.5461 3.96699ZM42.8182 7.7913C42.8082 7.80403 42.7275 7.92256 42.6388 8.05475C41.8713 9.19952 40.8574 10.4705 40.1618 11.1598C39.9217 11.3978 39.6246 11.6551 39.334 11.8767C38.7858 12.2948 37.8443 12.8667 37.2985 13.1131C37.1593 13.1759 36.9986 13.2552 36.9414 13.2892C36.8162 13.3636 36.666 13.5126 36.6913 13.5373C36.717 13.5625 39.052 13.5786 39.3986 13.556C40.1608 13.5062 40.7231 13.3643 41.2752 13.0825C41.9263 12.7502 42.4036 12.3077 42.6481 11.8095C42.8421 11.4142 42.8956 11.1415 42.9228 10.4106C42.9347 10.0898 42.9532 9.84009 42.9734 9.72872C43.0117 9.51719 43.0165 8.85304 42.9841 8.2337C42.9669 7.90451 42.9581 7.83329 42.9315 7.80367C42.895 7.76302 42.8448 7.75755 42.8182 7.7913ZM4.73502 7.92493C4.65738 8.01917 4.52768 9.373 4.525 10.1171C4.52368 10.4808 4.52877 10.5595 4.5653 10.741C4.77602 11.7883 5.48276 12.6333 6.49574 13.0493C6.95669 13.2386 7.77858 13.3956 8.67289 13.4651C8.80416 13.4754 9.20623 13.4891 9.56636 13.4957C10.2535 13.5082 10.344 13.5005 10.3305 13.4302C10.3273 13.4134 10.2005 13.3357 10.0352 13.2492C9.1761 12.7998 8.55843 12.3318 7.90176 11.6328C7.74864 11.4698 7.27485 10.917 6.88007 10.4408C6.36113 9.8148 5.7839 9.07566 5.08904 8.14734C4.91407 7.91359 4.90697 7.90675 4.83404 7.90135C4.78287 7.89758 4.75138 7.90509 4.73502 7.92493ZM44.4014 11.683C44.3846 11.6999 44.3498 11.7477 44.324 11.7893C44.2519 11.9058 43.6569 12.4918 43.4102 12.6893C42.6631 13.2875 41.89 13.7216 41.1061 13.9834C40.2322 14.2752 39.3123 14.4063 37.2137 14.5379C35.4176 14.6505 34.8683 14.7046 33.8263 14.8716C32.7351 15.0464 32.1325 15.1958 31.5037 15.4472C31.2345 15.5549 30.3257 16.007 29.8146 16.2876C28.2067 17.1702 27.3097 17.9249 26.196 19.3321C25.9958 19.5851 25.9628 19.6357 25.9839 19.657C26.005 19.6783 26.0672 19.6483 26.3833 19.4645C27.108 19.0431 27.4444 18.8648 27.9199 18.6499C29.1659 18.0869 30.451 17.7434 31.7791 17.6183C31.9457 17.6027 32.3588 17.5773 32.6971 17.5619C35.0029 17.4573 36.2111 17.3113 37.7711 16.9488C39.3284 16.5869 40.5381 16.1078 41.506 15.4695C41.6199 15.3944 41.7209 15.3329 41.7303 15.3329C41.7397 15.3329 41.7564 15.35 41.7675 15.3709C41.7987 15.4296 41.7306 15.6092 41.5808 15.863C41.5098 15.9834 41.385 16.2027 41.3035 16.3502C40.6608 17.5136 40.2778 18.0999 39.6846 18.8286C39.0383 19.6226 38.7143 19.918 37.9665 20.3954C36.6752 21.2197 35.3074 21.7041 33.8538 21.8518C33.2329 21.9149 32.3376 22.0134 32.3129 22.0213C32.1793 22.0641 32.7513 22.1926 33.4169 22.2692C34.1107 22.3491 35.208 22.3531 35.8734 22.2782C38.4828 21.9845 40.8201 20.5203 42.5244 18.1118C43.3464 16.9503 43.8675 15.8215 44.1997 14.483C44.3818 13.749 44.48 13.09 44.5491 12.1358C44.5751 11.7772 44.5751 11.7367 44.549 11.6965C44.5152 11.6446 44.4458 11.6382 44.4014 11.683ZM3.12838 12.1349C3.0642 12.3461 3.07457 13.3254 3.14797 13.9827C3.24949 14.892 3.42731 15.6257 3.73713 16.4136C4.18517 17.553 4.84579 18.553 5.75405 19.4666C7.44109 21.1635 9.40366 22.07 11.7835 22.2516C12.1592 22.2803 13.2238 22.2638 13.5934 22.2236C14.193 22.1584 14.9035 22.0297 15.4294 21.8911L15.6681 21.8283L15.1448 21.8265C14.25 21.8234 13.0786 21.7366 12.3725 21.6208C11.3288 21.4498 10.2742 21.0481 9.27877 20.4426C8.65275 20.0618 8.1362 19.6474 7.59805 19.0942C7.12548 18.6084 6.93141 18.3598 6.32307 17.4613C5.6516 16.4695 5.48744 16.2038 5.24823 15.7213C5.02807 15.2773 5.01575 15.2375 5.08034 15.1786C5.13206 15.1314 5.17849 15.1414 5.29323 15.2241C5.7362 15.5436 6.56145 16.0009 7.18869 16.2742C8.119 16.6797 8.99612 16.9538 9.70638 17.0609C10.0356 17.1105 10.0682 17.1132 11.5921 17.2194C14.5923 17.4283 15.7906 17.5695 16.834 17.8371C17.4338 17.991 17.8771 18.1499 18.5446 18.4504C19.3363 18.8067 20.0116 19.1763 20.5629 19.5549C20.928 19.8056 21.0604 19.8828 21.125 19.8828C21.1825 19.8828 21.1732 19.8675 20.9608 19.6121C20.5131 19.0734 19.7615 18.2584 19.2301 17.7352C18.3459 16.8648 17.4249 16.1593 16.6816 15.7833C16.0126 15.4448 14.9056 15.1723 12.8315 14.8356C11.1844 14.5682 10.3603 14.4795 8.17716 14.3346C7.17964 14.2684 7.00922 14.2522 6.68081 14.1928C5.94103 14.0591 5.29369 13.802 4.68874 13.4017C4.32622 13.1619 4.04982 12.9212 3.4372 12.3119L3.15877 12.035L3.12838 12.1349ZM43.8601 18.5496C43.8601 18.559 43.8652 18.58 43.8714 18.5963C43.8813 18.6223 44.4445 19.0926 45.0443 19.5758C45.1554 19.6653 45.2648 19.7606 45.2875 19.7875C45.3314 19.8399 45.342 19.9346 45.3105 19.9938C45.2864 20.0392 44.8084 20.4684 44.6316 20.6035C44.4585 20.7357 43.4351 21.4133 43.193 21.556C42.7554 21.8139 42.3243 21.9873 41.5818 22.2041C40.381 22.5548 39.2824 22.7481 38.0032 22.8338C37.0749 22.896 36.8968 22.9125 36.8809 22.9378C36.8479 22.9905 36.951 23.0286 37.4983 23.166C38.394 23.3908 39.3764 23.4871 40.5461 23.4645C41.4045 23.4479 41.8712 23.4046 42.4004 23.2927C43.2728 23.1081 44.0109 22.7946 44.7138 22.31C45.326 21.888 45.8256 21.3963 46.6162 20.4377C47.0293 19.9368 47.0433 19.9121 46.9583 19.8318C46.9082 19.7844 45.6221 19.1619 45.1453 18.9542C44.4861 18.667 43.8601 18.47 43.8601 18.5496ZM2.76092 18.8186C2.06544 18.9732 1.4349 19.1816 0.682062 19.5055C0.067769 19.7698 -0.0241601 19.8294 0.0046102 19.9449C0.0182518 19.9997 0.240299 20.3049 0.436789 20.5389C0.86313 21.0467 1.17951 21.3245 1.92554 21.8462C2.94506 22.5591 3.62692 22.8891 4.56022 23.1213C5.96982 23.4719 7.45374 23.4883 9.41647 23.175C9.81582 23.1113 9.90817 23.0859 10.0315 23.0058L10.1233 22.9462L10.0499 22.9333C10.0095 22.9261 9.836 22.9106 9.66433 22.8988C9.34112 22.8765 8.87637 22.8269 8.526 22.7773C7.85593 22.6823 6.41532 22.4044 5.92805 22.2762C4.67702 21.947 3.44153 21.3237 2.22848 20.4098C1.84624 20.1218 1.81538 20.0934 1.81538 20.0296C1.81538 19.9779 1.81338 19.9796 2.9124 19.0885C3.06581 18.9641 3.17403 18.8632 3.17403 18.8445C3.17403 18.7999 3.12378 18.7543 3.07633 18.756C3.05432 18.7567 2.9124 18.7849 2.76092 18.8186ZM25.1144 20.6041C25.1144 20.6555 25.206 20.7526 25.4971 21.0097C26.5054 21.9002 27.7805 22.7539 28.8457 23.2517C29.6619 23.6331 30.3839 23.8676 31.288 24.0448C31.4069 24.0681 31.4486 24.0999 31.4486 24.1671C31.4486 24.2083 31.4174 24.2284 31.1503 24.3585C30.5237 24.6638 29.9951 24.7816 28.9868 24.841C28.1386 24.8909 27.4349 24.7575 26.7886 24.4245C26.553 24.3031 26.3195 24.1479 26.0989 23.966C25.9177 23.8167 24.99 22.8576 24.7613 22.5832C24.5775 22.3626 24.3889 22.0772 24.288 21.8668C24.2452 21.7777 24.1885 21.681 24.162 21.6521C24.1127 21.5984 23.9793 21.5195 23.964 21.535C23.9593 21.5397 23.9359 21.6589 23.9119 21.7998C23.799 22.4644 23.8014 22.7642 23.9232 23.2298C24.0677 23.7824 24.3757 24.382 24.7654 24.8694C24.9479 25.0976 25.5035 25.6464 25.7598 25.8517C26.5389 26.4758 27.358 26.8341 28.2441 26.9385C28.5615 26.9759 29.5372 27.0107 29.8835 26.9969C30.4144 26.9758 30.9922 26.8625 31.4945 26.6808C31.8099 26.5668 32.3745 26.2836 32.6604 26.096C33.2153 25.732 33.7183 25.2405 34.2425 24.5503C34.532 24.1692 35.0884 23.3745 35.1168 23.3018C35.139 23.2448 35.1399 23.2219 35.1216 23.1773C35.0778 23.0708 35.0166 23.0655 34.5434 23.1277C34.2065 23.1719 33.6235 23.1925 33.225 23.1743C31.6748 23.1032 30.1795 22.6832 27.795 21.6492C27.1683 21.3774 26.2834 21.0011 26.0232 20.8958C25.7908 20.8017 25.1479 20.5672 25.1223 20.5672C25.118 20.5672 25.1144 20.5838 25.1144 20.6041ZM21.626 20.7904C20.7849 21.1796 20.0971 21.473 19.3258 21.7714C18.8924 21.9391 17.9636 22.2749 17.8071 22.3205C17.7717 22.3308 17.5817 22.3906 17.3848 22.4534C16.233 22.8208 15.1995 23.0487 14.2397 23.1472C13.881 23.184 13.1356 23.2108 12.4517 23.2115C12.1653 23.2118 11.9134 23.22 11.8876 23.2299C11.7851 23.2692 11.7963 23.306 12.0946 23.9092C12.5443 24.8185 12.6675 25.0179 12.9869 25.3536C13.2569 25.6375 13.4863 25.8027 14.0065 26.0884C15.3799 26.8424 16.7147 27.1093 17.9855 26.8839C19.2652 26.6569 19.9641 26.3803 20.7355 25.7954C21.3094 25.3602 21.9122 24.6932 22.4097 23.9426C22.7316 23.4569 22.9044 23.0165 22.9681 22.5185C22.9903 22.3452 22.9802 21.7591 22.953 21.6435L22.9387 21.5824L22.8725 21.6712C22.8361 21.7201 22.696 21.9138 22.5612 22.1016C21.7641 23.2125 21.118 23.8752 20.2914 24.43C19.1426 25.2011 18.074 25.3732 16.8967 24.9766C16.4538 24.8274 16.0073 24.6127 15.6295 24.3674C15.4141 24.2276 15.1325 24.0128 15.1194 23.9784C15.1136 23.9634 15.124 23.9359 15.1424 23.9174C15.1681 23.8915 15.2283 23.8786 15.4036 23.8615C16.431 23.7614 17.0467 23.5956 17.7979 23.2166C18.784 22.7191 20.859 21.5037 21.4429 21.0817C21.7832 20.8357 21.8726 20.7633 21.9218 20.6938C21.9422 20.6648 21.9563 20.6413 21.9531 20.6414C21.9499 20.6415 21.8027 20.7085 21.626 20.7904Z" fill="white"/>
</svg>
