<svg width="41" height="41" viewBox="0 0 41 41" fill="none" xmlns="http://www.w3.org/2000/svg">
<path fill-rule="evenodd" clip-rule="evenodd" d="M0 20.5V41H20.5H41V20.5V0H20.5H0V20.5ZM34.3475 20.1424C34.3432 28.2051 34.3365 35.0169 34.3327 35.2791C34.328 35.5861 29.315 35.7558 20.2616 35.7558H6.19767V20.4928V5.22988L20.2764 5.35622L34.3547 5.48256L34.3475 20.1424ZM13.1815 6.42365C13.0328 6.81077 13.2768 7.339 13.7264 7.60073C14.4892 8.04554 14.4878 8.07652 13.7064 8.09035C13.2473 8.09798 12.8721 8.42645 12.8721 8.81977C12.8721 9.21308 13.2883 9.53488 13.7975 9.53488C14.3066 9.53488 14.8553 9.74942 15.0174 10.0116C15.2015 10.3096 14.228 10.4884 12.4235 10.4884C10.835 10.4884 9.53488 10.6853 9.53488 10.926C9.53488 11.9043 10.1532 12.8721 10.7778 12.8721C11.1429 12.8721 11.4419 13.3012 11.4419 13.8256C11.4419 14.35 11.2273 14.7791 10.9651 14.7791C10.2858 14.7791 10.403 16.7723 11.1401 17.742C11.6125 18.3647 11.8938 18.4271 12.3167 18.0042C12.6223 17.6987 12.8721 17.1699 12.8721 16.8291C12.8721 16.4882 13.3288 16.2093 13.8866 16.2093C14.8029 16.2093 14.8716 16.3933 14.596 18.1163L14.2909 20.0233H15.8937H17.4965L17.2667 16.4477L17.0374 12.8721H18.502C19.3077 12.8721 20.1191 13.1181 20.3045 13.4184C20.54 13.7994 20.2812 13.8742 19.4502 13.6654C17.8517 13.2645 17.4536 13.7793 18.4729 14.9292C19.085 15.62 19.1489 15.9275 18.7122 16.0801C18.3847 16.195 18.1163 16.8405 18.1163 17.5146C18.1163 18.7117 18.1387 18.7203 19.0726 17.875C20.0943 16.9506 21.0592 17.271 20.1105 18.2197C19.0588 19.2714 19.486 20.0233 21.1365 20.0233H22.7259L22.5009 16.133C22.2964 12.5999 22.3507 12.2719 23.0954 12.5574C23.5464 12.7305 24.1123 12.8721 24.353 12.8721C24.5938 12.8721 24.7907 13.0866 24.7907 13.3488C24.7907 13.611 24.456 13.8256 24.047 13.8256C23.4787 13.8256 23.3381 14.248 23.451 15.6134L23.5988 17.4012L25.8634 17.2581C27.6526 17.1451 28.1279 17.2701 28.1279 17.8541C28.1279 18.2603 27.9134 18.593 27.6512 18.593C27.0261 18.593 27.0352 19.8807 27.6626 20.2688C28.4607 20.7622 30.9884 20.0032 30.9884 19.2705C30.9884 18.8977 30.7738 18.593 30.5116 18.593C30.2427 18.593 30.0349 17.2424 30.0349 15.4942C30.0349 13.746 30.2427 12.3953 30.5116 12.3953C30.7738 12.3953 30.9888 11.9124 30.9893 11.3227C30.9908 10.2929 30.8492 10.2562 27.4738 10.4049L23.9569 10.5594L23.646 8.9032C23.2279 6.67537 22.2854 5.91067 21.2432 6.95284C20.5305 7.66557 20.5257 7.81956 21.1927 8.55661C22.4947 9.99494 22.0742 10.4884 19.5465 10.4884C17.3096 10.4884 17.1628 10.4135 17.1628 9.27363C17.1628 8.02742 15.139 5.72093 14.0454 5.72093C13.7183 5.72093 13.3298 6.03701 13.1815 6.42365ZM28.1279 14.268C28.1279 15.4408 27.9105 15.6429 26.3849 15.8908C25.4262 16.0463 24.4379 16.0477 24.1886 15.8932C23.5621 15.5061 24.7902 14.7953 26.1017 14.7862C26.9327 14.7805 27.1744 14.5045 27.1744 13.5591C27.1744 12.8673 27.3808 12.4664 27.6512 12.6337C27.9134 12.7958 28.1279 13.5314 28.1279 14.268ZM14.7791 13.8604C14.7791 15.0823 13.201 14.9435 12.9617 13.7011C12.8516 13.1291 13.1086 12.8721 13.7908 12.8721C14.473 12.8721 14.7791 13.1782 14.7791 13.8604ZM19.5465 21.9302C19.5465 22.7583 19.7901 22.919 20.8576 22.796C21.638 22.7064 22.1686 22.356 22.1686 21.9302C22.1686 21.5045 21.638 21.1541 20.8576 21.0645C19.7901 20.9415 19.5465 21.1021 19.5465 21.9302ZM12.3953 24.9781C12.3953 25.6055 12.7172 26.2424 13.1105 26.3935C14.1645 26.7978 13.9829 27.4266 12.6337 28.0411C11.1205 28.7305 11.1143 29.3727 12.6166 29.7498C13.5 29.9715 13.9252 30.5407 14.33 32.0453C14.7877 33.7449 14.9412 33.9175 15.3483 33.19C15.6119 32.719 15.7287 31.8165 15.6077 31.1843C15.4551 30.3848 15.6048 30.0349 16.0996 30.0349C16.6551 30.0349 16.7552 30.4544 16.5559 31.9419C16.3013 33.8379 16.3094 33.8488 17.8951 33.8488C19.5227 33.8488 20.4275 33.2014 19.5541 32.6617C19.2876 32.4973 19.0783 30.9269 19.0888 29.1725L19.1079 25.9826L19.895 27.4128C20.3279 28.1994 20.6268 29.4142 20.5596 30.1121C20.4685 31.0551 20.7021 31.4651 21.4702 31.7087C22.0404 31.8899 22.7378 31.8017 23.0272 31.5123C24.1509 30.3886 24.8465 30.9216 24.5209 32.657L24.2076 34.3256H26.168C27.5568 34.3256 28.1279 34.1253 28.1279 33.6386C28.1279 33.2605 27.9134 32.8191 27.6512 32.657C26.8488 32.1612 27.0562 26.7134 27.8895 26.3935C28.2828 26.2424 28.6047 25.6055 28.6047 24.9781V23.8372H20.5H12.3953V24.9781ZM24.7001 27.9773C24.5776 29.4351 24.3297 29.7927 23.2413 30.0811C22.2654 30.3405 21.9302 30.257 21.9302 29.7555C21.9302 29.3846 22.252 29.0814 22.6453 29.0814C23.5817 29.0814 23.5531 28.6123 22.5724 27.8953C21.545 27.1439 22.1419 26.2209 23.6556 26.2209C24.7387 26.2209 24.8346 26.3821 24.7001 27.9773ZM16.686 27.6512C16.686 28.1808 16.3681 28.6047 15.9709 28.6047C15.1686 28.6047 15.1362 28.5174 15.5452 27.4519C15.9538 26.3864 16.686 26.5146 16.686 27.6512Z" fill="white"/>
</svg>
